<svg width="19" height="11" viewBox="0 0 19 11" xmlns="http://www.w3.org/2000/svg"><title>BikeMini</title><desc>Created with Sketch.</desc><g fill="none" fill-rule="evenodd"><g fill="#9B9B9B"><path d="M6.223 7.317H3.66c-.22 0-.376-.095-.47-.285-.096-.19-.078-.373.052-.548l1.536-2.05c-.354-.168-.727-.253-1.12-.253-.718 0-1.333.257-1.845.77-.512.51-.768 1.126-.768 1.845 0 .72.256 1.334.768 1.846s1.127.768 1.846.768c.625 0 1.177-.197 1.657-.592.48-.395.78-.894.906-1.5zm-1.52-1.045h1.52c-.098-.463-.302-.866-.612-1.21l-.906 1.21zm3.92 0l2.353-3.136h-3.92l-.808 1.078c.57.56.914 1.247 1.03 2.058h1.346zm9.148.523c0-.72-.255-1.334-.767-1.846-.51-.513-1.127-.77-1.845-.77-.327 0-.656.067-.99.197L15.592 6.5c.082.126.11.26.082.4-.027.143-.1.25-.22.328-.082.06-.18.09-.294.09-.19 0-.335-.08-.433-.237l-1.42-2.123c-.508.518-.76 1.13-.76 1.838 0 .72.255 1.334.767 1.846s1.127.768 1.846.768c.718 0 1.334-.256 1.845-.767.512-.51.768-1.126.768-1.845zm1.046 0c0 1.007-.358 1.87-1.074 2.585-.715.716-1.577 1.074-2.584 1.074-1.008 0-1.87-.358-2.585-1.074-.716-.716-1.074-1.578-1.074-2.585 0-.528.106-1.028.322-1.5.215-.47.513-.877.894-1.22l-.53-.8L9.3 7.105c-.098.142-.237.212-.416.212h-1.61c-.125.893-.53 1.64-1.216 2.238-.686.6-1.487.9-2.4.9-1.008 0-1.87-.36-2.586-1.075C.358 8.664 0 7.802 0 6.795s.358-1.87 1.074-2.585c.716-.716 1.578-1.074 2.585-1.074.62 0 1.205.15 1.755.45L6.533 2.09h-1.83c-.14 0-.263-.05-.366-.154-.104-.104-.156-.226-.156-.368s.053-.264.157-.367c.103-.103.226-.155.367-.155H7.84V2.09h3.553L10.7 1.046H8.885c-.142 0-.265-.05-.368-.155-.103-.103-.155-.226-.155-.367 0-.142.052-.264.155-.368C8.62.052 8.744 0 8.886 0h2.09c.18 0 .324.076.433.23l2.18 3.265c.495-.24 1.018-.36 1.568-.36 1.007 0 1.87.36 2.584 1.075.716.716 1.074 1.578 1.074 2.585z"/></g></g></svg>