<svg width="23" height="31" viewBox="0 0 23 31" xmlns="http://www.w3.org/2000/svg"><g fill="none" fill-rule="evenodd"><g fill="#fff"><g><g><path d="M.5 8.36c0 .07.024.14.073.2.098.117.27.16.422.106L5.512 7.05v23.623c0 .18.162.327.362.327h3.62c.2 0 .36-.147.36-.327v-8.288l.01.003c.114-.272 1.19-2.573 4.797-2.76l-1.73 3.973c-.06.138-.013.294.117.382.13.09.31.09.44 0l8.872-6.178c.088-.062.14-.158.14-.26 0-.1-.052-.197-.14-.26l-8.874-6.176c-.065-.045-.143-.067-.22-.067-.077 0-.154.022-.218.067-.13.088-.18.245-.12.382l1.785 4.088v.335c-2.03.06-3.622.54-4.857 1.195V7.05l4.517 1.616c.152.054.324.01.422-.108.097-.117.097-.28-.002-.397L7.97.13C7.904.048 7.798 0 7.685 0c-.112 0-.218.047-.286.128L.576 8.16c-.05.06-.076.13-.076.2z"/></g></g></g></g></svg>
