<svg width="14" height="13" viewBox="0 0 14 13" class="iconic icon-expand" xmlns="http://www.w3.org/2000/svg"><g fill="none" fill-rule="evenodd"><g class="fill" fill="#191716"><path d="M6.698 7.854c0 .074-.03.138-.085.195l-2.81 2.81 1.22 1.217c.106.108.16.235.16.38 0 .148-.054.275-.16.382-.108.106-.235.16-.382.16H.85c-.147 0-.274-.054-.38-.16-.11-.108-.162-.235-.162-.382v-3.79c0-.148.053-.275.16-.382.108-.107.235-.16.38-.16.148 0 .275.053.382.16l1.22 1.22 2.81-2.81c.055-.058.12-.086.194-.086.073 0 .138.028.194.085l.965.965c.056.056.085.12.085.194zm6.61-7.312v3.79c0 .148-.054.275-.16.382-.108.107-.235.16-.382.16-.147 0-.274-.053-.38-.16l-1.22-1.22-2.81 2.81c-.056.058-.12.086-.194.086-.073 0-.138-.028-.195-.085l-.965-.965c-.056-.056-.084-.12-.084-.194 0-.074.028-.138.084-.195l2.81-2.81L8.594.924c-.108-.108-.16-.235-.16-.38 0-.148.052-.275.16-.382.107-.106.234-.16.38-.16h3.792c.147 0 .274.054.38.16.108.108.162.235.162.382z"/></g></g></svg>
