<svg xmlns="http://www.w3.org/2000/svg" class="marker" width="38" height="32" viewBox="0 0 2481.0014 2072.9992">
  <g clip-rule="evenodd" transform="matrix(1.14 0 0 1.156 -213.906 -155.925)" fill-rule="evenodd">
    <path stroke-miterlimit="10" d="M730.94 1839.629c-38.766-190.301-107.116-348.665-189.903-495.44-61.407-108.872-132.544-209.363-198.364-314.938-21.972-35.244-40.934-72.477-62.047-109.054-42.216-73.137-76.444-157.935-74.269-267.932 2.125-107.473 33.208-193.684 78.03-264.172 73.719-115.935 197.201-210.989 362.884-235.969 135.466-20.424 262.475 14.082 352.543 66.748 73.6 43.038 130.596 100.527 173.92 168.28 45.22 70.716 76.359 154.26 78.971 263.232 1.337 55.83-7.805 107.532-20.684 150.418-13.034 43.409-33.996 79.695-52.646 118.454-36.406 75.659-82.049 144.982-127.855 214.346-136.437 206.606-264.496 417.31-320.58 706.027z" stroke-width="37" class="marker-body"/>
    <path d="M731.379 1934.407c131.604-120.864 211.314-235.977 269.138-350.49 42.892-84.942 70.542-169.166 106.953-254.061 12.156-28.34 28.508-56.568 42.519-85.3 28.018-57.449 72.657-118.133 169.03-178.096 94.16-58.588 193.955-93.756 291.58-114.697 160.565-34.442 344.277-37.299 502.593 15.593 129.444 43.246 204.674 113.469 233.778 178.863 23.783 53.438 21.428 108.185-1.045 163.103-23.455 57.32-69.568 116.065-161.105 177.391-46.898 31.417-98.9 56.333-146.412 74.868-48.088 18.761-96.6 30.392-145.328 44.32-95.119 27.188-192.42 47.153-289.891 67.076-290.323 59.339-577.251 124.321-871.81 261.43z" opacity=".09" class="marker-shadow"/>
    <text class="marker-letter" x="550" y="900" font-size="550">{A}</text>
  </g>
</svg>
