<svg class="settings-icon" width="16" height="18" viewBox="0 0 16 18" xmlns="http://www.w3.org/2000/svg"><g fill="none" fill-rule="evenodd"><g fill="#191716" opacity=".203"><g><g><path d="M2.91 4.125H1.454V0H2.91v4.125zM4.363 8.25c0 .203-.072.38-.216.527-.144.15-.315.223-.512.223H.726C.53 9 .36 8.926.217 8.777.072 8.63 0 8.453 0 8.25v-3c0-.203.072-.38.216-.527.144-.15.314-.223.51-.223h2.91c.197 0 .368.074.512.223.144.148.216.324.216.527v3zm4.363 1.875H7.273V0h1.454v10.125zm5.818-7.5H13.09V0h1.455v2.625zM2.91 18H1.454V9.375H2.91V18zM16 6.75c0 .203-.072.38-.216.527-.144.15-.314.223-.51.223h-2.91c-.197 0-.368-.074-.512-.223-.144-.148-.216-.324-.216-.527v-3c0-.203.072-.38.216-.527.144-.15.315-.223.512-.223h2.91c.196 0 .366.074.51.223.144.148.216.324.216.527v3zm-5.818 7.5c0 .203-.072.38-.216.527-.144.15-.314.223-.51.223h-2.91c-.198 0-.368-.074-.512-.223-.144-.148-.216-.324-.216-.527v-3c0-.203.072-.38.216-.527.144-.15.314-.223.51-.223h2.91c.198 0 .368.074.512.223.144.148.216.324.216.527v3zM8.727 18H7.273v-2.625h1.454V18zm5.818 0H13.09V7.875h1.455V18z"/></g></g></g></g></svg>
