<svg width="11" height="15" viewBox="0 0 11 15" class="iconic icon-thumb-tack" xmlns="http://www.w3.org/2000/svg"><g fill="none" fill-rule="evenodd"><g class="fill"><path d="M4.52 6.635v-4.04c0-.083-.028-.152-.082-.206-.054-.055-.123-.082-.207-.082-.083 0-.152.027-.207.08-.054.055-.08.124-.08.208v4.04c0 .083.026.152.08.206.055.054.124.08.208.08.085 0 .154-.026.208-.08.054-.054.08-.123.08-.207zm6.057 3.173c0 .156-.057.29-.17.405-.116.115-.25.172-.407.172H6.133l-.46 4.354c-.012.07-.043.132-.095.183-.05.05-.112.077-.184.077h-.01c-.162 0-.258-.08-.288-.243l-.685-4.372H.77c-.157 0-.292-.057-.406-.172-.115-.114-.172-.25-.172-.405 0-.74.236-1.405.708-1.997.472-.59 1.005-.887 1.6-.887V2.308c-.313 0-.583-.114-.81-.343-.23-.228-.344-.5-.344-.81 0-.314.114-.584.343-.812C1.916.113 2.187 0 2.5 0h5.77c.312 0 .582.114.81.343.23.228.343.498.343.81 0 .313-.114.584-.342.812-.228.23-.498.343-.81.343v4.615c.594 0 1.128.296 1.6.888.47.593.707 1.26.707 1.998z"/></g></g></svg>
