<svg xmlns="http://www.w3.org/2000/svg" class="iconic icon-zoom" viewBox="0 0 14 13" height="13" width="14"><g fill="none" fill-rule="evenodd"><g class="fill" fill="#010002"><g><path d="m 7.9677912,4.8828672 v 0.8006914 c 0,0.165141 -0.1351163,0.3002602 -0.3002601,0.3002602 H 6.2663227 v 1.4012057 c 0,0.1651432 -0.1351163,0.3002594 -0.3002561,0.3002594 h -0.800692 c -0.1651412,0 -0.3002575,-0.1351162 -0.3002575,-0.3002594 V 5.9838188 H 3.463909 c -0.165141,0 -0.3002595,-0.1351192 -0.3002595,-0.3002602 V 4.8828672 c 0,-0.165141 0.1351185,-0.3002571 0.3002595,-0.3002571 H 4.8651171 V 3.1814022 c 0,-0.165141 0.1351163,-0.3002595 0.3002575,-0.3002595 h 0.800692 c 0.1651398,0 0.3002561,0.1351185 0.3002561,0.3002595 v 1.4012079 h 1.4012084 c 0.1651438,0 0.3002601,0.1351161 0.3002601,0.3002571 z m 5.0293338,7.1236408 -0.708111,0.708109 c -0.235204,0.235202 -0.615531,0.235202 -0.84823,0 L 8.9436304,10.219968 C 8.8310291,10.107366 8.7684792,9.954739 8.7684792,9.794603 V 9.386749 c -0.8832592,0.690595 -1.9942187,1.100949 -3.2027573,1.100949 -2.874979,0 -5.20448605,-2.329507 -5.20448605,-5.2044836 0,-2.8749784 2.32950705,-5.20448532 5.20448605,-5.20448532 2.8749752,0 5.2044821,2.32950692 5.2044821,5.20448532 0,1.2085395 -0.410352,2.319499 -1.1009483,3.2027586 h 0.4078533 c 0.160137,0 0.312768,0.06256 0.425365,0.175151 l 2.494651,2.494651 c 0.232699,0.235201 0.232699,0.615529 0,0.850733 z M 8.9686509,5.2832144 c 0,-1.8816238 -1.5213076,-3.4029332 -3.402929,-3.4029332 -1.8816236,0 -3.4029331,1.5213094 -3.4029331,3.4029332 0,1.8816209 1.5213095,3.4029306 3.4029331,3.4029306 1.8816214,0 3.402929,-1.5213097 3.402929,-3.4029306 z"/></g></g></g></svg>
